<svg width="20" height="20" viewBox="0 0 20 20" fill="none" xmlns="http://www.w3.org/2000/svg">
<path fill-rule="evenodd" clip-rule="evenodd" d="M11.5655 1.96775L10.9096 0L9.09138 0L8.4355 1.96763C8.06033 2.04028 7.69429 2.13857 7.3393 2.26059L5.78871 0.885607L4.21412 1.7947L4.63001 3.82704C4.34459 4.07554 4.07658 4.34351 3.82804 4.62889L1.7943 4.21271L0.885209 5.7873L2.26092 7.33871C2.13887 7.69371 2.04056 8.05975 1.96788 8.43494L0 9.0909L0 10.9091L1.96788 11.565C2.04054 11.9402 2.13883 12.3061 2.26084 12.6611L0.884923 14.2127L1.79401 15.7873L3.82801 15.3711C4.07641 15.6563 4.34426 15.9241 4.62949 16.1725L4.21343 18.2057L5.78802 19.1148L7.33913 17.7393C7.69417 17.8614 8.06026 17.9597 8.4355 18.0324L9.09138 20H10.9096L11.5655 18.0322C11.9408 17.9595 12.307 17.8612 12.6621 17.739L14.214 19.1152L15.7886 18.2061L15.3722 16.1713C15.6569 15.9233 15.9242 15.6559 16.1722 15.3712L18.2055 15.7873L19.1146 14.2127L17.7393 12.6617C17.8614 12.3066 17.9598 11.9404 18.0325 11.565L20.0002 10.9091V9.09091L18.0325 8.435C17.9598 8.05958 17.8614 7.69331 17.7392 7.3381L19.1144 5.78731L18.2053 4.21272L16.1722 4.62876C15.9241 4.34388 15.6565 4.07634 15.3717 3.82819L15.7879 1.79428L14.2133 0.885192L12.6619 2.26089C12.3068 2.1388 11.9407 2.04045 11.5655 1.96775Z" fill="#BE054B"/>
<path d="M14.4445 10.0001C14.4445 12.4547 12.4547 14.4445 10.0001 14.4445C7.54551 14.4445 5.55566 12.4547 5.55566 10.0001C5.55566 7.54551 7.54551 5.55566 10.0001 5.55566C12.4547 5.55566 14.4445 7.54551 14.4445 10.0001Z" fill="#FAFAFA"/>
</svg>
