<svg xmlns="http://www.w3.org/2000/svg" fill="none" viewBox="0 0 88 80">
  <path fill="#07012E" stroke="#07012E" stroke-width="2" d="M39 62h10v9H39z"/>
  <mask id="a" width="80" height="46" x="4" y="11" maskUnits="userSpaceOnUse" style="mask-type:alpha">
    <rect width="78" height="44" x="5" y="12" fill="#FAFAFA" stroke="#07012E" stroke-width="2" rx="7"/>
  </mask>
  <g mask="url(#a)">
    <mask id="b" fill="#fff">
      <path fill-rule="evenodd" d="M39.146 18.384a.5.5 0 0 1 .486-.384h8.734a.5.5 0 0 1 .487.384l1.911 8.029a.12.12 0 0 0 .18.075l7.03-4.326a.5.5 0 0 1 .616.072l6.175 6.176a.5.5 0 0 1 .073.616l-4.326 7.029a.121.121 0 0 0 .075.182l8.029 1.91a.5.5 0 0 1 .384.487v8.734a.5.5 0 0 1-.384.487l-8.025 1.91a.134.134 0 0 0-.092.08.099.099 0 0 0 .007.089l4.332 7.04a.5.5 0 0 1-.072.616l-6.176 6.176a.5.5 0 0 1-.616.072l-7.033-4.328a.117.117 0 0 0-.175.073l-1.913 8.033a.5.5 0 0 1-.487.384h-8.734a.5.5 0 0 1-.486-.384l-1.913-8.036a.114.114 0 0 0-.172-.071l-7.035 4.33a.5.5 0 0 1-.616-.073l-6.176-6.176a.5.5 0 0 1-.072-.616l4.329-7.034a.115.115 0 0 0-.071-.172l-8.036-1.913a.5.5 0 0 1-.384-.487v-8.734a.5.5 0 0 1 .384-.486l8.031-1.912a.12.12 0 0 0 .074-.179l-4.327-7.031a.5.5 0 0 1 .073-.616l6.175-6.175a.5.5 0 0 1 .616-.073l7.03 4.327c.033.02.073.023.108.008a.118.118 0 0 0 .07-.082l1.912-8.03ZM44 50.141a7.143 7.143 0 1 0 0-14.286 7.143 7.143 0 0 0 0 14.286Z" clip-rule="evenodd"/>
    </mask>
    <path fill="#FAFAFA" fill-rule="evenodd" d="M39.146 18.384a.5.5 0 0 1 .486-.384h8.734a.5.5 0 0 1 .487.384l1.911 8.029a.12.12 0 0 0 .18.075l7.03-4.326a.5.5 0 0 1 .616.072l6.175 6.176a.5.5 0 0 1 .073.616l-4.326 7.029a.121.121 0 0 0 .075.182l8.029 1.91a.5.5 0 0 1 .384.487v8.734a.5.5 0 0 1-.384.487l-8.025 1.91a.134.134 0 0 0-.092.08.099.099 0 0 0 .007.089l4.332 7.04a.5.5 0 0 1-.072.616l-6.176 6.176a.5.5 0 0 1-.616.072l-7.033-4.328a.117.117 0 0 0-.175.073l-1.913 8.033a.5.5 0 0 1-.487.384h-8.734a.5.5 0 0 1-.486-.384l-1.913-8.036a.114.114 0 0 0-.172-.071l-7.035 4.33a.5.5 0 0 1-.616-.073l-6.176-6.176a.5.5 0 0 1-.072-.616l4.329-7.034a.115.115 0 0 0-.071-.172l-8.036-1.913a.5.5 0 0 1-.384-.487v-8.734a.5.5 0 0 1 .384-.486l8.031-1.912a.12.12 0 0 0 .074-.179l-4.327-7.031a.5.5 0 0 1 .073-.616l6.175-6.175a.5.5 0 0 1 .616-.073l7.03 4.327c.033.02.073.023.108.008a.118.118 0 0 0 .07-.082l1.912-8.03ZM44 50.141a7.143 7.143 0 1 0 0-14.286 7.143 7.143 0 0 0 0 14.286Z" clip-rule="evenodd"/>
    <path fill="#BE054B" d="m37.056 26.489-1.048 1.703 1.048-1.703Zm-7.646-4.255 1.415 1.415-1.415-1.415Zm-6.248 6.792 1.704-1.048-1.704 1.048Zm4.327 7.031-1.703 1.048 1.703-1.048Zm-.074.179.463 1.946-.463-1.946Zm-8.03 1.912-.464-1.946.463 1.946Zm0 9.707.462-1.946-.463 1.946Zm8.035 1.913.463-1.946-.463 1.946Zm-4.186 7.822-1.414 1.414 1.414-1.414Zm-.072-.616 1.703 1.049-1.703-1.049Zm6.864 6.864 1.048 1.703-1.048-1.703Zm7.035-4.33-1.048-1.703 1.048 1.704Zm.172.072 1.945-.463-1.945.463Zm1.913 8.036 1.946-.463-1.946.463Zm9.707 0-1.946-.463 1.946.463Zm1.912-8.033 1.946.463-1.946-.463Zm.176-.073 1.048-1.703-1.048 1.703Zm7.033 4.328-1.048 1.703 1.048-1.703Zm6.864-6.864-1.703 1.049 1.703-1.049Zm-4.332-7.04 1.703-1.048-1.703 1.048Zm.085-.169-.463-1.945.463 1.945Zm8.025-11.617-.463 1.945.463-1.945Zm-8.029-1.912.464-1.945-.464 1.945Zm-.075-.181 1.703 1.048-1.703-1.048Zm4.254-7.645 1.414-1.414-1.415 1.414Zm.072.616-1.704-1.049 1.704 1.049Zm-6.864-6.864-1.048-1.703 1.048 1.703Zm.616.072-1.415 1.414 1.415-1.414Zm-7.645 4.254-1.048-1.704 1.048 1.704Zm-.18-.075 1.945-.463-1.946.463Zm-11.619-8.029-1.946-.463 1.946.463ZM27.491 49.94l-1.703-1.049 1.703 1.049ZM48.366 16h-8.734v4h8.734v-4Zm4.344 9.95-1.912-8.03-3.89.927 1.91 8.03 3.892-.927Zm4.216-5.491-7.03 4.325 2.097 3.407 7.03-4.326-2.097-3.406Zm9.254 6.537-6.176-6.176-2.829 2.828 6.176 6.176 2.829-2.828Zm-3.965 10.107 4.326-7.03-3.407-2.096-4.325 7.03 3.406 2.096Zm6.864-.9-8.028-1.912-.927 3.891 8.029 1.911.926-3.89ZM71 47.367v-8.734h-4v8.734h4Zm-9.946 4.343 8.025-1.91-.926-3.892-8.025 1.91.926 3.892Zm5.487 4.215-4.332-7.04-3.407 2.096 4.333 7.04 3.407-2.096Zm-6.537 9.254 6.176-6.176-2.828-2.828-6.176 6.176 2.828 2.828Zm-10.111-3.967 7.033 4.328 2.097-3.406-7.034-4.328-2.096 3.406Zm.905 6.866 1.913-8.033-3.891-.927-1.913 8.034 3.891.926ZM39.632 70h8.734v-4h-8.734v4Zm-4.345-9.957L37.2 68.08l3.892-.926-1.914-8.036-3.89.926Zm-4.213 5.498 7.035-4.329-2.096-3.407-7.036 4.33 2.097 3.407Zm-9.254-6.537 6.176 6.176 2.828-2.828-6.176-6.176-2.828 2.828Zm3.968-10.113-4.33 7.035 3.407 2.097 4.33-7.035-3.407-2.097Zm-6.867.91 8.036 1.913.926-3.892-8.036-1.913-.926 3.891ZM17 38.633v8.734h4v-8.734h-4Zm9.952-4.344-8.031 1.912.926 3.892 8.031-1.913-.926-3.89Zm-5.493-4.216 4.327 7.031 3.406-2.096-4.326-7.031-3.407 2.096Zm6.537-9.254-6.176 6.176 2.829 2.829 6.176-6.176-2.829-2.829Zm10.109 3.965-7.03-4.326-2.097 3.407 7.03 4.326 2.096-3.407ZM37.2 17.92l-1.912 8.03 3.892.927 1.912-8.03-3.892-.927Zm11.943 25.077A5.143 5.143 0 0 1 44 48.14v4a9.143 9.143 0 0 0 9.143-9.143h-4ZM44 37.855a5.143 5.143 0 0 1 5.143 5.143h4A9.143 9.143 0 0 0 44 33.855v4Zm-5.143 5.143A5.143 5.143 0 0 1 44 37.855v-4a9.143 9.143 0 0 0-9.143 9.143h4ZM44 48.14a5.143 5.143 0 0 1-5.143-5.143h-4A9.143 9.143 0 0 0 44 52.14v-4Zm-6.07-19.797a2.119 2.119 0 0 0 1.25-1.466l-3.892-.926a1.88 1.88 0 0 1 1.11-1.302l1.532 3.694Zm-1.922-.152a2.118 2.118 0 0 0 1.922.152l-1.532-3.694a1.881 1.881 0 0 1 1.706.135l-2.096 3.407Zm-5.183-4.543a1.5 1.5 0 0 1-1.847.217l2.096-3.407a2.5 2.5 0 0 0-3.078.361l2.829 2.829Zm-5.96 4.329a1.5 1.5 0 0 1-.216 1.847l-2.829-2.829a2.5 2.5 0 0 0-.361 3.078l3.407-2.096Zm4.48 8.953a2.12 2.12 0 0 0-.153-1.922l-3.406 2.096a1.88 1.88 0 0 1-.136-1.705l3.695 1.531Zm-1.467 1.25a2.12 2.12 0 0 0 1.467-1.25L25.65 35.4a1.88 1.88 0 0 1 1.302-1.11l.926 3.892ZM21 38.635a1.5 1.5 0 0 1-1.153 1.46l-.926-3.892A2.5 2.5 0 0 0 17 38.634h4Zm-1.153 7.275A1.5 1.5 0 0 1 21 47.37h-4a2.5 2.5 0 0 0 1.92 2.431l.927-3.89Zm9.5 3.16a2.114 2.114 0 0 0-1.464-1.247l-.926 3.892a1.885 1.885 0 0 1-1.305-1.112l3.694-1.533Zm-4.699 7.107a1.5 1.5 0 0 1 .217 1.847l-3.406-2.097a2.5 2.5 0 0 0 .36 3.078l2.83-2.828Zm4.33 5.959a1.5 1.5 0 0 1 1.846.217l-2.828 2.828a2.5 2.5 0 0 0 3.078.361l-2.097-3.406Zm8.953-4.482a2.115 2.115 0 0 0-1.918.153l2.096 3.406a1.886 1.886 0 0 1-1.71.136l1.532-3.695Zm1.247 1.464a2.115 2.115 0 0 0-1.247-1.464l-1.532 3.695a1.885 1.885 0 0 1-1.112-1.305l3.891-.926ZM39.632 66a1.5 1.5 0 0 1 1.46 1.153l-3.892.926A2.5 2.5 0 0 0 39.632 70v-4Zm7.275 1.153A1.5 1.5 0 0 1 48.367 66v4a2.5 2.5 0 0 0 2.431-1.92l-3.89-.927Zm3.162-9.5a2.117 2.117 0 0 0-1.25 1.466l3.892.927a1.882 1.882 0 0 1-1.11 1.303l-1.532-3.695Zm1.92.154a2.117 2.117 0 0 0-1.92-.153l1.531 3.695a1.88 1.88 0 0 1-1.707-.136l2.096-3.407Zm5.187 4.545a1.5 1.5 0 0 1 1.847-.217l-2.097 3.406a2.5 2.5 0 0 0 3.078-.36l-2.828-2.83Zm5.959-4.33a1.5 1.5 0 0 1 .217-1.846l2.828 2.828a2.5 2.5 0 0 0 .361-3.078l-3.406 2.097Zm-4.483-8.945a2.099 2.099 0 0 0 .15 1.905l3.407-2.096c.322.522.37 1.165.137 1.725l-3.694-1.534Zm1.476-1.257a2.13 2.13 0 0 0-1.476 1.257l3.694 1.535c-.228.548-.706.96-1.291 1.099l-.927-3.891ZM67 47.368a1.5 1.5 0 0 1 1.153-1.459l.926 3.891A2.5 2.5 0 0 0 71 47.368h-4Zm1.153-7.275A1.5 1.5 0 0 1 67 38.634h4a2.5 2.5 0 0 0-1.92-2.432l-.927 3.892Zm-9.497-3.162a2.121 2.121 0 0 0 1.468 1.251l.927-3.891c.59.14 1.07.555 1.3 1.108l-3.695 1.532Zm.153-1.924a2.122 2.122 0 0 0-.153 1.924l3.695-1.532c.23.553.182 1.187-.136 1.704l-3.406-2.096Zm4.542-5.183a1.5 1.5 0 0 1-.217-1.847l3.407 2.097a2.5 2.5 0 0 0-.361-3.078l-2.829 2.828Zm-4.329-5.959a1.5 1.5 0 0 1-1.847-.217l2.829-2.828a2.5 2.5 0 0 0-3.078-.361l2.096 3.406Zm-8.953 4.479a2.12 2.12 0 0 0 1.924-.153l-2.096-3.407a1.88 1.88 0 0 1 1.704-.135l-1.532 3.695Zm-1.25-1.468a2.12 2.12 0 0 0 1.25 1.468l1.532-3.695c.553.229.968.71 1.109 1.3l-3.891.927ZM39.632 16a2.5 2.5 0 0 0-2.432 1.92l3.892.927A1.5 1.5 0 0 1 39.632 20v-4ZM29.194 50.988a2.113 2.113 0 0 0 .152-1.919l-3.694 1.533a1.885 1.885 0 0 1 .136-1.71l3.406 2.096ZM48.366 20a1.5 1.5 0 0 1-1.459-1.153l3.891-.926A2.5 2.5 0 0 0 48.366 16v4Z" mask="url(#b)"/>
  </g>
  <rect width="78" height="57" x="5" y="5" stroke="#07012E" stroke-width="2" rx="7"/>
  <path fill="#07012E" stroke="#07012E" stroke-width="2" d="M35 71h18a3 3 0 0 1 3 3v1H32v-1a3 3 0 0 1 3-3Z"/>
  <path stroke="#07012E" stroke-linecap="round" stroke-width="2" d="M5 56h78"/>
</svg>
